<svg width="200" height="200" viewBox="0 0 200 200" fill="none" xmlns="http://www.w3.org/2000/svg">
<path fill-rule="evenodd" clip-rule="evenodd" d="M58.6667 122.667H119.333C119.677 122.667 120.011 122.63 120.333 122.559C120.655 122.63 120.99 122.667 121.333 122.667H156C158.577 122.667 160.667 120.577 160.667 118C160.667 115.423 158.577 113.333 156 113.333H152C149.423 113.333 147.333 111.244 147.333 108.667C147.333 106.089 149.423 104 152 104H164.667C167.244 104 169.333 101.911 169.333 99.3333C169.333 96.756 167.244 94.6667 164.667 94.6667H150C152.577 94.6667 154.667 92.5773 154.667 90C154.667 87.4227 152.577 85.3333 150 85.3333H107.333C109.911 85.3333 112 83.244 112 80.6667C112 78.0893 109.911 76 107.333 76H69.3333C66.756 76 64.6667 78.0893 64.6667 80.6667C64.6667 83.244 66.756 85.3333 69.3333 85.3333H42.6667C40.0893 85.3333 38 87.4227 38 90C38 92.5773 40.0893 94.6667 42.6667 94.6667H59.3333C61.9107 94.6667 64 96.756 64 99.3333C64 101.911 61.9107 104 59.3333 104H32.6667C30.0893 104 28 106.089 28 108.667C28 111.244 30.0893 113.333 32.6667 113.333H58.6667C56.0893 113.333 54 115.423 54 118C54 120.577 56.0893 122.667 58.6667 122.667ZM167.335 122.665C169.912 122.665 172.001 120.576 172.001 117.999C172.001 115.421 169.912 113.332 167.335 113.332C164.757 113.332 162.668 115.421 162.668 117.999C162.668 120.576 164.757 122.665 167.335 122.665Z" fill="#F6F6F6"/>
<path fill-rule="evenodd" clip-rule="evenodd" d="M92.0803 108.203C92.0282 108.572 92.0013 108.949 92.0013 109.332C92.0013 113.75 95.583 117.332 100.001 117.332C104.42 117.332 108.001 113.75 108.001 109.332C108.001 108.949 107.974 108.572 107.922 108.203H127.335V125.999C127.335 127.103 126.439 127.999 125.335 127.999H74.668C73.5634 127.999 72.668 127.103 72.668 125.999V108.203H92.0803Z" fill="white"/>
<path fill-rule="evenodd" clip-rule="evenodd" d="M108.668 107.999C108.668 112.785 104.788 116.665 100.001 116.665C95.2148 116.665 91.3346 112.785 91.3346 107.999C91.3346 107.844 91.3387 107.69 91.3468 107.536H72.668L79.0416 88.6913C79.3164 87.8788 80.0785 87.332 80.9362 87.332H119.066C119.924 87.332 120.686 87.8788 120.961 88.6913L127.335 107.536H108.656C108.664 107.69 108.668 107.844 108.668 107.999Z" fill="white"/>
<path fill-rule="evenodd" clip-rule="evenodd" d="M107.4 108.635C107.4 112.334 104.087 115.999 100.001 115.999C95.9153 115.999 92.6029 112.334 92.6029 108.635C92.6029 108.515 92.6064 107.729 92.6133 107.611H78.668L84.1089 94.3823C84.3434 93.7546 84.9941 93.332 85.7262 93.332H114.276C115.009 93.332 115.659 93.7546 115.894 94.3823L121.335 107.611H107.389C107.396 107.729 107.4 108.515 107.4 108.635Z" fill="#E2C8FC"/>
<path fill-rule="evenodd" clip-rule="evenodd" d="M73.5 107.676V125.335C73.5 125.979 74.0223 126.501 74.6667 126.501H125.333C125.978 126.501 126.5 125.979 126.5 125.335V107.676L120.17 88.9609C120.01 88.4869 119.565 88.168 119.065 88.168H80.9349C80.4346 88.168 79.99 88.4869 79.8297 88.9609L73.5 107.676Z" stroke="#874AC5" stroke-width="1.66667"/>
<path d="M82.0016 107.332C84.626 107.332 87.4582 107.332 90.4982 107.332C91.7491 107.332 91.7491 108.211 91.7491 108.665C91.7491 113.084 95.4132 116.665 99.9331 116.665C104.453 116.665 108.117 113.084 108.117 108.665C108.117 108.211 108.117 107.332 109.368 107.332H126.002M77.0508 107.332H78.6683H77.0508Z" stroke="#874AC5" stroke-width="1.66667" stroke-linecap="round" stroke-linejoin="round"/>
<path d="M116.733 72.2005L109.333 80.5026M99.3997 69.332V80.5026V69.332ZM82 72.2005L89.3997 80.5026L82 72.2005Z" stroke="#BC8AEE" stroke-width="1.66667" stroke-linecap="round" stroke-linejoin="round"/>
</svg>
